# xmcd CD database file
#
# Track frame offsets:
#	182
#	10650
#	31630
#	45945
#	61955
#	78137
#	86472
#	96730
#	110497
#	124822
#	140682
#	152920
#	163637
#	178900
#
# Disc length: 2565 seconds
#
# Revision: 1
# Processed by: cddbd v1.5.2PL0 Copyright (c) Steve Scherf et al.
# Submitted via: CDex 1.70beta2
#
DISCID=ac0a030e
DTITLE=Wylie and The Wild West Show - Get Wild
DYEAR=1994
DGENRE=Country
TTITLE0=Honeydew
TTITLE1=Too Late
TTITLE2=Shakin' The Blues
TTITLE3=Give It Up
TTITLE4=Room To Roam
TTITLE5=Ugly Girl Blues
TTITLE6=I'm Gonna Be A Cow-Boy
TTITLE7=Devil Woman
TTITLE8=Hey Maria
TTITLE9=Cattle Call
TTITLE10=Honky Tonk Girls
TTITLE11=How Do Ya Feel ?
TTITLE12=Jesus Loves Me
TTITLE13=Half Hearted Love
EXTD=YEAR: 1994
EXTT0=
EXTT1=
EXTT2=
EXTT3=
EXTT4=
EXTT5=
EXTT6=
EXTT7=
EXTT8=
EXTT9=
EXTT10=
EXTT11=
EXTT12=
EXTT13=
PLAYORDER=
